<mxfile host="app.diagrams.net" modified="2020-04-26T23:48:26.784Z" agent="5.0 (Windows NT 10.0; Win64; x64) AppleWebKit/537.36 (KHTML, like Gecko) Chrome/80.0.3987.163 Safari/537.36" etag="ZsHtJU3JDTbPeOwO1XbK" version="13.0.1" type="github">
  <diagram id="_wZCIX21bVTnccCvDHll" name="duluth network">
    <mxGraphModel dx="1422" dy="804" grid="1" gridSize="10" guides="1" tooltips="1" connect="1" arrows="1" fold="1" page="1" pageScale="1" pageWidth="850" pageHeight="1100" math="0" shadow="0">
      <root>
        <mxCell id="0" />
        <mxCell id="1" parent="0" />
        <mxCell id="kESvJMbOoLiE9TMQdQq1-1" value="DLH-MSB-IRT01&lt;br&gt;&lt;font style=&quot;font-size: 10px&quot;&gt;10.40.0.3&lt;/font&gt;" style="rounded=1;whiteSpace=wrap;html=1;fillColor=#d5e8d4;strokeColor=#82b366;" parent="1" vertex="1">
          <mxGeometry x="160" y="200" width="100" height="30" as="geometry" />
        </mxCell>
        <mxCell id="kESvJMbOoLiE9TMQdQq1-5" value="&lt;b&gt;DIA&lt;/b&gt;&amp;nbsp; &amp;nbsp; &amp;nbsp; &amp;nbsp; &amp;nbsp;&lt;font style=&quot;font-size: 10px&quot;&gt;(VLAN 1)&lt;/font&gt;&lt;br&gt;&lt;b&gt;MICE&lt;/b&gt;&amp;nbsp; &amp;nbsp; &amp;nbsp; &lt;font style=&quot;font-size: 10px&quot;&gt;(VLAN 100)&lt;/font&gt;" style="rounded=1;whiteSpace=wrap;html=1;align=left;fillColor=#dae8fc;strokeColor=#6c8ebf;" parent="1" vertex="1">
          <mxGeometry x="155" y="50" width="110" height="30" as="geometry" />
        </mxCell>
        <mxCell id="kESvJMbOoLiE9TMQdQq1-2" value="DLH-MSB-PE01&lt;br&gt;&lt;font style=&quot;font-size: 10px&quot;&gt;10.40.0.2&lt;/font&gt;" style="rounded=1;whiteSpace=wrap;html=1;fillColor=#d5e8d4;strokeColor=#82b366;" parent="1" vertex="1">
          <mxGeometry x="160" y="310" width="100" height="30" as="geometry" />
        </mxCell>
        <mxCell id="kESvJMbOoLiE9TMQdQq1-13" value="DLH-CTN-PE01&lt;br&gt;&lt;font style=&quot;font-size: 10px&quot;&gt;10.40.0.1&lt;/font&gt;" style="rounded=1;whiteSpace=wrap;html=1;fillColor=#d5e8d4;strokeColor=#82b366;" parent="1" vertex="1">
          <mxGeometry x="565" y="310" width="100" height="30" as="geometry" />
        </mxCell>
        <mxCell id="kESvJMbOoLiE9TMQdQq1-17" value="DLH-CTN-CRT02&lt;br&gt;&lt;font style=&quot;font-size: 10px&quot;&gt;10.40.0.5&lt;/font&gt;" style="rounded=1;whiteSpace=wrap;html=1;fillColor=#d5e8d4;strokeColor=#82b366;" parent="1" vertex="1">
          <mxGeometry x="560" y="570" width="100" height="30" as="geometry" />
        </mxCell>
        <mxCell id="kESvJMbOoLiE9TMQdQq1-15" value="DLH-CTN-CRT01&lt;br&gt;&lt;font style=&quot;font-size: 10px&quot;&gt;10.40.0.4&lt;/font&gt;" style="rounded=1;whiteSpace=wrap;html=1;fillColor=#d5e8d4;strokeColor=#82b366;" parent="1" vertex="1">
          <mxGeometry x="490" y="500" width="100" height="30" as="geometry" />
        </mxCell>
        <mxCell id="kESvJMbOoLiE9TMQdQq1-7" value="COMPUDYNE-PE" style="rounded=1;whiteSpace=wrap;html=1;fillColor=#ffe6cc;strokeColor=#d79b00;" parent="1" vertex="1">
          <mxGeometry x="30" y="390" width="110" height="30" as="geometry" />
        </mxCell>
        <mxCell id="kESvJMbOoLiE9TMQdQq1-11" value="HDN-EFW" style="rounded=1;whiteSpace=wrap;html=1;fillColor=#ffe6cc;strokeColor=#d79b00;" parent="1" vertex="1">
          <mxGeometry x="180" y="500" width="110" height="30" as="geometry" />
        </mxCell>
        <mxCell id="kESvJMbOoLiE9TMQdQq1-9" value="BGLY-EFW" style="rounded=1;whiteSpace=wrap;html=1;fillColor=#ffe6cc;strokeColor=#d79b00;" parent="1" vertex="1">
          <mxGeometry x="30" y="500" width="110" height="30" as="geometry" />
        </mxCell>
        <mxCell id="kESvJMbOoLiE9TMQdQq1-20" value="DLH-CTN-CSW01" style="rounded=1;whiteSpace=wrap;html=1;fillColor=#d5e8d4;strokeColor=#82b366;" parent="1" vertex="1">
          <mxGeometry x="720" y="500" width="110" height="30" as="geometry" />
        </mxCell>
        <mxCell id="kESvJMbOoLiE9TMQdQq1-26" value="DLH-CTN-EFW01" style="rounded=1;whiteSpace=wrap;html=1;fillColor=#d5e8d4;strokeColor=#82b366;" parent="1" vertex="1">
          <mxGeometry x="480" y="690" width="100" height="30" as="geometry" />
        </mxCell>
        <mxCell id="kESvJMbOoLiE9TMQdQq1-29" value="DLH-CTN-PRD01&lt;br&gt;vmWare Cluster" style="pointerEvents=1;shadow=0;dashed=0;html=1;strokeColor=none;fillColor=#4495D1;labelPosition=center;verticalLabelPosition=bottom;verticalAlign=top;align=center;outlineConnect=0;shape=mxgraph.veeam.data_center;" parent="1" vertex="1">
          <mxGeometry x="1092" y="490" width="76" height="50" as="geometry" />
        </mxCell>
        <mxCell id="kESvJMbOoLiE9TMQdQq1-31" value="" style="endArrow=none;dashed=1;html=1;strokeWidth=1;opacity=50;" parent="1" edge="1">
          <mxGeometry width="50" height="50" relative="1" as="geometry">
            <mxPoint x="360" y="800" as="sourcePoint" />
            <mxPoint x="360" y="30" as="targetPoint" />
          </mxGeometry>
        </mxCell>
        <mxCell id="kESvJMbOoLiE9TMQdQq1-32" value="" style="endArrow=none;dashed=1;html=1;strokeWidth=1;opacity=50;" parent="1" edge="1">
          <mxGeometry width="50" height="50" relative="1" as="geometry">
            <mxPoint x="20" y="439.5" as="sourcePoint" />
            <mxPoint x="360" y="439.5" as="targetPoint" />
          </mxGeometry>
        </mxCell>
        <mxCell id="Kl6SVJsnWVhjvLM3U9N9-1" value="svc 300" style="text;html=1;strokeColor=none;fillColor=none;align=center;verticalAlign=middle;whiteSpace=wrap;rounded=0;comic=1;fontSize=8;" parent="1" vertex="1">
          <mxGeometry x="350" y="504" width="60" height="10" as="geometry" />
        </mxCell>
        <mxCell id="Kl6SVJsnWVhjvLM3U9N9-2" value="svc 301" style="text;html=1;strokeColor=none;fillColor=none;align=center;verticalAlign=middle;whiteSpace=wrap;rounded=0;comic=1;fontSize=8;" parent="1" vertex="1">
          <mxGeometry x="350" y="575" width="60" height="10" as="geometry" />
        </mxCell>
        <mxCell id="Kl6SVJsnWVhjvLM3U9N9-3" value="23.159.32.17/30" style="text;html=1;strokeColor=none;fillColor=none;align=center;verticalAlign=middle;whiteSpace=wrap;rounded=0;comic=1;fontSize=8;" parent="1" vertex="1">
          <mxGeometry x="240" y="250" width="60" height="10" as="geometry" />
        </mxCell>
        <mxCell id="Kl6SVJsnWVhjvLM3U9N9-5" value="23.159.32.18/30" style="text;html=1;strokeColor=none;fillColor=none;align=center;verticalAlign=middle;whiteSpace=wrap;rounded=0;comic=1;fontSize=8;" parent="1" vertex="1">
          <mxGeometry x="498" y="585" width="60" height="10" as="geometry" />
        </mxCell>
        <mxCell id="kESvJMbOoLiE9TMQdQq1-36" value="L2" parent="0" />
        <mxCell id="kESvJMbOoLiE9TMQdQq1-49" value="&lt;font face=&quot;Courier New&quot; style=&quot;font-size: 8px;&quot;&gt;(2) 1G&lt;/font&gt;" style="edgeStyle=orthogonalEdgeStyle;rounded=0;orthogonalLoop=1;jettySize=auto;html=1;endArrow=none;endFill=0;strokeWidth=2;fillColor=#d5e8d4;strokeColor=#82b366;shape=link;spacing=2;fontSize=8;" parent="kESvJMbOoLiE9TMQdQq1-36" source="kESvJMbOoLiE9TMQdQq1-15" target="kESvJMbOoLiE9TMQdQq1-26" edge="1">
          <mxGeometry x="0.5" y="-10" relative="1" as="geometry">
            <mxPoint x="529.3100000000002" y="680" as="targetPoint" />
            <mxPoint x="529.3100000000002" y="590" as="sourcePoint" />
            <Array as="points">
              <mxPoint x="510" y="650" />
              <mxPoint x="510" y="650" />
            </Array>
            <mxPoint x="10" y="-10" as="offset" />
          </mxGeometry>
        </mxCell>
        <mxCell id="kESvJMbOoLiE9TMQdQq1-6" value="&lt;font face=&quot;Courier New&quot; style=&quot;font-size: 8px;&quot;&gt;10G&lt;/font&gt;" style="rounded=0;orthogonalLoop=1;jettySize=auto;html=1;endArrow=none;endFill=0;strokeWidth=2;fillColor=#fff2cc;strokeColor=#d6b656;fontSize=8;" parent="kESvJMbOoLiE9TMQdQq1-36" source="kESvJMbOoLiE9TMQdQq1-1" target="kESvJMbOoLiE9TMQdQq1-5" edge="1">
          <mxGeometry relative="1" as="geometry" />
        </mxCell>
        <mxCell id="kESvJMbOoLiE9TMQdQq1-3" value="&lt;font face=&quot;Courier New&quot; style=&quot;font-size: 8px;&quot;&gt;10G&lt;/font&gt;" style="edgeStyle=orthogonalEdgeStyle;rounded=0;orthogonalLoop=1;jettySize=auto;html=1;endArrow=none;endFill=0;fillColor=#fff2cc;strokeColor=#d6b656;strokeWidth=2;fontSize=8;" parent="kESvJMbOoLiE9TMQdQq1-36" source="kESvJMbOoLiE9TMQdQq1-1" target="kESvJMbOoLiE9TMQdQq1-2" edge="1">
          <mxGeometry relative="1" as="geometry" />
        </mxCell>
        <mxCell id="kESvJMbOoLiE9TMQdQq1-8" value="&lt;font face=&quot;Courier New&quot; style=&quot;font-size: 8px;&quot;&gt;10G&lt;/font&gt;" style="edgeStyle=orthogonalEdgeStyle;rounded=0;orthogonalLoop=1;jettySize=auto;html=1;endArrow=none;endFill=0;strokeWidth=2;fillColor=#fff2cc;strokeColor=#d6b656;fontSize=8;" parent="kESvJMbOoLiE9TMQdQq1-36" source="kESvJMbOoLiE9TMQdQq1-2" target="kESvJMbOoLiE9TMQdQq1-7" edge="1">
          <mxGeometry relative="1" as="geometry" />
        </mxCell>
        <mxCell id="kESvJMbOoLiE9TMQdQq1-10" value="&lt;font face=&quot;Courier New&quot; style=&quot;font-size: 8px;&quot;&gt;1G&lt;/font&gt;" style="edgeStyle=orthogonalEdgeStyle;rounded=0;orthogonalLoop=1;jettySize=auto;html=1;endArrow=none;endFill=0;strokeWidth=2;fillColor=#fff2cc;strokeColor=#d6b656;fontSize=8;" parent="kESvJMbOoLiE9TMQdQq1-36" source="kESvJMbOoLiE9TMQdQq1-7" target="kESvJMbOoLiE9TMQdQq1-9" edge="1">
          <mxGeometry relative="1" as="geometry" />
        </mxCell>
        <mxCell id="kESvJMbOoLiE9TMQdQq1-12" value="&lt;font face=&quot;Courier New&quot; style=&quot;font-size: 8px;&quot;&gt;100M&lt;/font&gt;" style="edgeStyle=orthogonalEdgeStyle;rounded=0;orthogonalLoop=1;jettySize=auto;html=1;endArrow=none;endFill=0;strokeWidth=2;fillColor=#d5e8d4;strokeColor=#82b366;fontSize=8;" parent="kESvJMbOoLiE9TMQdQq1-36" source="kESvJMbOoLiE9TMQdQq1-7" target="kESvJMbOoLiE9TMQdQq1-11" edge="1">
          <mxGeometry x="0.5789" relative="1" as="geometry">
            <mxPoint as="offset" />
          </mxGeometry>
        </mxCell>
        <mxCell id="kESvJMbOoLiE9TMQdQq1-19" value="&lt;font face=&quot;Courier New&quot; style=&quot;font-size: 8px&quot;&gt;(2) 10G LAG (Po16)&lt;/font&gt;" style="edgeStyle=orthogonalEdgeStyle;rounded=0;orthogonalLoop=1;jettySize=auto;html=1;endArrow=none;endFill=0;strokeWidth=2;fillColor=#fff2cc;strokeColor=#d6b656;shape=link;" parent="kESvJMbOoLiE9TMQdQq1-36" source="kESvJMbOoLiE9TMQdQq1-2" target="kESvJMbOoLiE9TMQdQq1-13" edge="1">
          <mxGeometry relative="1" as="geometry">
            <mxPoint x="260" y="324.5" as="sourcePoint" />
            <mxPoint x="580" y="324.5" as="targetPoint" />
          </mxGeometry>
        </mxCell>
        <mxCell id="kESvJMbOoLiE9TMQdQq1-16" value="&lt;font face=&quot;Courier New&quot; style=&quot;font-size: 8px;&quot;&gt;10G&lt;/font&gt;" style="edgeStyle=orthogonalEdgeStyle;rounded=0;orthogonalLoop=1;jettySize=auto;html=1;endArrow=none;endFill=0;strokeWidth=2;fillColor=#dae8fc;strokeColor=#6c8ebf;fontSize=8;" parent="kESvJMbOoLiE9TMQdQq1-36" source="kESvJMbOoLiE9TMQdQq1-13" target="kESvJMbOoLiE9TMQdQq1-15" edge="1">
          <mxGeometry relative="1" as="geometry">
            <Array as="points">
              <mxPoint x="580" y="390" />
              <mxPoint x="580" y="390" />
            </Array>
          </mxGeometry>
        </mxCell>
        <mxCell id="kESvJMbOoLiE9TMQdQq1-18" value="&lt;font face=&quot;Courier New&quot; style=&quot;font-size: 8px;&quot;&gt;10G&lt;/font&gt;" style="edgeStyle=orthogonalEdgeStyle;rounded=0;orthogonalLoop=1;jettySize=auto;html=1;endArrow=none;endFill=0;strokeWidth=2;fillColor=#dae8fc;strokeColor=#6c8ebf;fontSize=8;" parent="kESvJMbOoLiE9TMQdQq1-36" source="kESvJMbOoLiE9TMQdQq1-13" target="kESvJMbOoLiE9TMQdQq1-17" edge="1">
          <mxGeometry relative="1" as="geometry">
            <Array as="points">
              <mxPoint x="610" y="380" />
              <mxPoint x="610" y="380" />
            </Array>
          </mxGeometry>
        </mxCell>
        <mxCell id="kESvJMbOoLiE9TMQdQq1-22" value="&lt;font face=&quot;Courier New&quot; style=&quot;font-size: 8px;&quot;&gt;10G&lt;/font&gt;" style="edgeStyle=orthogonalEdgeStyle;rounded=0;orthogonalLoop=1;jettySize=auto;html=1;endArrow=none;endFill=0;strokeWidth=2;fillColor=#dae8fc;strokeColor=#6c8ebf;fontSize=8;" parent="kESvJMbOoLiE9TMQdQq1-36" source="kESvJMbOoLiE9TMQdQq1-17" target="kESvJMbOoLiE9TMQdQq1-20" edge="1">
          <mxGeometry x="-0.1768" relative="1" as="geometry">
            <mxPoint x="720" y="590" as="sourcePoint" />
            <mxPoint as="offset" />
          </mxGeometry>
        </mxCell>
        <mxCell id="kESvJMbOoLiE9TMQdQq1-21" value="&lt;font face=&quot;Courier New&quot; style=&quot;font-size: 8px;&quot;&gt;10G&lt;/font&gt;" style="edgeStyle=orthogonalEdgeStyle;rounded=0;orthogonalLoop=1;jettySize=auto;html=1;endArrow=none;endFill=0;strokeWidth=2;fillColor=#dae8fc;strokeColor=#6c8ebf;fontSize=8;" parent="kESvJMbOoLiE9TMQdQq1-36" source="kESvJMbOoLiE9TMQdQq1-15" target="kESvJMbOoLiE9TMQdQq1-20" edge="1">
          <mxGeometry x="-0.0769" relative="1" as="geometry">
            <mxPoint x="510" y="440" as="sourcePoint" />
            <mxPoint x="680" y="540" as="targetPoint" />
            <mxPoint as="offset" />
          </mxGeometry>
        </mxCell>
        <mxCell id="kESvJMbOoLiE9TMQdQq1-27" value="&lt;font face=&quot;Courier New&quot; style=&quot;font-size: 8px;&quot;&gt;(2) 10G&lt;/font&gt;" style="edgeStyle=orthogonalEdgeStyle;rounded=0;orthogonalLoop=1;jettySize=auto;html=1;endArrow=none;endFill=0;strokeWidth=2;fillColor=#dae8fc;strokeColor=#6c8ebf;shape=link;fontSize=8;" parent="kESvJMbOoLiE9TMQdQq1-36" source="kESvJMbOoLiE9TMQdQq1-20" target="kESvJMbOoLiE9TMQdQq1-29" edge="1">
          <mxGeometry relative="1" as="geometry">
            <mxPoint x="805" y="440" as="targetPoint" />
          </mxGeometry>
        </mxCell>
        <mxCell id="kESvJMbOoLiE9TMQdQq1-30" value="&lt;font face=&quot;Courier New&quot; style=&quot;font-size: 8px;&quot;&gt;(2) 1G&lt;/font&gt;" style="edgeStyle=orthogonalEdgeStyle;rounded=0;orthogonalLoop=1;jettySize=auto;html=1;endArrow=none;endFill=0;strokeWidth=2;fillColor=#d5e8d4;strokeColor=#82b366;shape=link;fontSize=8;" parent="kESvJMbOoLiE9TMQdQq1-36" source="kESvJMbOoLiE9TMQdQq1-26" target="kESvJMbOoLiE9TMQdQq1-20" edge="1">
          <mxGeometry x="0.4019" relative="1" as="geometry">
            <Array as="points">
              <mxPoint x="800" y="705" />
            </Array>
            <mxPoint as="offset" />
          </mxGeometry>
        </mxCell>
        <mxCell id="kESvJMbOoLiE9TMQdQq1-24" value="&lt;font face=&quot;Courier New&quot; style=&quot;font-size: 8px;&quot;&gt;(2) 1G&lt;/font&gt;" style="edgeStyle=orthogonalEdgeStyle;rounded=0;orthogonalLoop=1;jettySize=auto;html=1;endArrow=none;endFill=0;strokeWidth=2;fillColor=#d5e8d4;strokeColor=#82b366;shape=link;spacing=2;fontSize=8;" parent="kESvJMbOoLiE9TMQdQq1-36" source="kESvJMbOoLiE9TMQdQq1-17" target="kESvJMbOoLiE9TMQdQq1-26" edge="1">
          <mxGeometry x="0.5556" y="-30" relative="1" as="geometry">
            <mxPoint x="865" y="430" as="targetPoint" />
            <Array as="points">
              <mxPoint x="570" y="670" />
              <mxPoint x="570" y="670" />
            </Array>
            <mxPoint x="30" y="-30" as="offset" />
          </mxGeometry>
        </mxCell>
        <mxCell id="kESvJMbOoLiE9TMQdQq1-37" value="L3" parent="0" />
        <mxCell id="kESvJMbOoLiE9TMQdQq1-35" style="edgeStyle=orthogonalEdgeStyle;rounded=1;comic=0;jumpStyle=none;jumpSize=6;orthogonalLoop=1;jettySize=auto;html=1;dashed=1;dashPattern=1 1;startArrow=oval;startFill=0;sourcePerimeterSpacing=5;endArrow=oval;endFill=0;strokeWidth=1;exitX=1;exitY=0.75;exitDx=0;exitDy=0;entryX=0;entryY=0.75;entryDx=0;entryDy=0;fillColor=#e1d5e7;strokeColor=#9673a6;" parent="kESvJMbOoLiE9TMQdQq1-37" source="kESvJMbOoLiE9TMQdQq1-2" target="kESvJMbOoLiE9TMQdQq1-13" edge="1">
          <mxGeometry relative="1" as="geometry">
            <Array as="points">
              <mxPoint x="350" y="333" />
              <mxPoint x="350" y="333" />
            </Array>
          </mxGeometry>
        </mxCell>
        <mxCell id="kESvJMbOoLiE9TMQdQq1-39" value="10.42.0.1/30" style="text;html=1;strokeColor=none;fillColor=none;align=center;verticalAlign=middle;whiteSpace=wrap;rounded=0;comic=1;fontSize=8;" parent="kESvJMbOoLiE9TMQdQq1-37" vertex="1">
          <mxGeometry x="510" y="333" width="50" height="10" as="geometry" />
        </mxCell>
        <mxCell id="kESvJMbOoLiE9TMQdQq1-40" value="10.42.0.2/30" style="text;html=1;strokeColor=none;fillColor=none;align=center;verticalAlign=middle;whiteSpace=wrap;rounded=0;comic=1;fontSize=8;" parent="kESvJMbOoLiE9TMQdQq1-37" vertex="1">
          <mxGeometry x="260" y="333" width="50" height="10" as="geometry" />
        </mxCell>
        <mxCell id="kESvJMbOoLiE9TMQdQq1-41" value="svc 900 | igp" style="text;html=1;strokeColor=none;fillColor=none;align=center;verticalAlign=middle;whiteSpace=wrap;rounded=0;comic=1;fontSize=8;" parent="kESvJMbOoLiE9TMQdQq1-37" vertex="1">
          <mxGeometry x="395" y="333" width="60" height="10" as="geometry" />
        </mxCell>
        <mxCell id="kESvJMbOoLiE9TMQdQq1-46" value="10.42.0.5/30" style="text;html=1;strokeColor=none;fillColor=none;align=left;verticalAlign=middle;whiteSpace=wrap;rounded=0;comic=1;fontSize=8;" parent="kESvJMbOoLiE9TMQdQq1-37" vertex="1">
          <mxGeometry x="520" y="350" width="50" height="10" as="geometry" />
        </mxCell>
        <mxCell id="kESvJMbOoLiE9TMQdQq1-48" value="10.42.0.9/30" style="text;html=1;strokeColor=none;fillColor=none;align=left;verticalAlign=middle;whiteSpace=wrap;rounded=0;comic=1;fontSize=8;" parent="kESvJMbOoLiE9TMQdQq1-37" vertex="1">
          <mxGeometry x="620" y="340" width="49" height="9" as="geometry" />
        </mxCell>
        <mxCell id="kESvJMbOoLiE9TMQdQq1-43" value="10.42.0.6/30" style="text;html=1;strokeColor=none;fillColor=none;align=left;verticalAlign=middle;whiteSpace=wrap;rounded=0;comic=1;fontSize=8;" parent="kESvJMbOoLiE9TMQdQq1-37" vertex="1">
          <mxGeometry x="520" y="490" width="50" height="10" as="geometry" />
        </mxCell>
        <mxCell id="kESvJMbOoLiE9TMQdQq1-47" value="10.42.0.10/30" style="text;html=1;strokeColor=none;fillColor=none;align=left;verticalAlign=middle;whiteSpace=wrap;rounded=0;comic=1;fontSize=8;" parent="kESvJMbOoLiE9TMQdQq1-37" vertex="1">
          <mxGeometry x="620" y="560" width="50" height="10" as="geometry" />
        </mxCell>
        <mxCell id="X_rIFtFeMd0tIJMBMbQ9-3" style="edgeStyle=orthogonalEdgeStyle;rounded=1;comic=0;jumpStyle=none;jumpSize=6;orthogonalLoop=1;jettySize=auto;html=1;dashed=1;dashPattern=1 1;startArrow=oval;startFill=0;sourcePerimeterSpacing=5;endArrow=oval;endFill=0;strokeWidth=1;fillColor=#e1d5e7;strokeColor=#9673a6;entryX=0.8;entryY=-0.005;entryDx=0;entryDy=0;entryPerimeter=0;exitX=0.052;exitY=0.999;exitDx=0;exitDy=0;exitPerimeter=0;" parent="kESvJMbOoLiE9TMQdQq1-37" source="kESvJMbOoLiE9TMQdQq1-13" target="kESvJMbOoLiE9TMQdQq1-15" edge="1">
          <mxGeometry relative="1" as="geometry">
            <mxPoint x="520" y="380" as="sourcePoint" />
            <mxPoint x="540" y="460" as="targetPoint" />
          </mxGeometry>
        </mxCell>
        <mxCell id="X_rIFtFeMd0tIJMBMbQ9-5" style="edgeStyle=orthogonalEdgeStyle;rounded=1;comic=0;jumpStyle=none;jumpSize=6;orthogonalLoop=1;jettySize=auto;html=1;dashed=1;dashPattern=1 1;startArrow=oval;startFill=0;sourcePerimeterSpacing=5;endArrow=oval;endFill=0;strokeWidth=1;fillColor=#e1d5e7;strokeColor=#9673a6;entryX=0.609;entryY=0.002;entryDx=0;entryDy=0;entryPerimeter=0;exitX=0.559;exitY=1.002;exitDx=0;exitDy=0;exitPerimeter=0;" parent="kESvJMbOoLiE9TMQdQq1-37" source="kESvJMbOoLiE9TMQdQq1-13" target="kESvJMbOoLiE9TMQdQq1-17" edge="1">
          <mxGeometry relative="1" as="geometry">
            <mxPoint x="640" y="360" as="sourcePoint" />
            <mxPoint x="664.4999999999999" y="530.0000000000001" as="targetPoint" />
          </mxGeometry>
        </mxCell>
        <mxCell id="X_rIFtFeMd0tIJMBMbQ9-1" value="23.159.32.13/30" style="text;html=1;strokeColor=none;fillColor=none;align=center;verticalAlign=middle;whiteSpace=wrap;rounded=0;comic=1;fontSize=8;" parent="kESvJMbOoLiE9TMQdQq1-37" vertex="1">
          <mxGeometry x="250" y="235" width="60" height="10" as="geometry" />
        </mxCell>
        <mxCell id="X_rIFtFeMd0tIJMBMbQ9-2" value="23.159.32.14/30" style="text;html=1;strokeColor=none;fillColor=none;align=center;verticalAlign=middle;whiteSpace=wrap;rounded=0;comic=1;fontSize=8;" parent="kESvJMbOoLiE9TMQdQq1-37" vertex="1">
          <mxGeometry x="428" y="503" width="60" height="10" as="geometry" />
        </mxCell>
        <mxCell id="X_rIFtFeMd0tIJMBMbQ9-8" value="svc 900 | igp" style="text;html=1;strokeColor=none;fillColor=none;align=center;verticalAlign=middle;whiteSpace=wrap;rounded=0;comic=1;fontSize=8;rotation=-90;" parent="kESvJMbOoLiE9TMQdQq1-37" vertex="1">
          <mxGeometry x="596" y="450" width="60" height="10" as="geometry" />
        </mxCell>
        <mxCell id="X_rIFtFeMd0tIJMBMbQ9-7" value="svc 900 | igp" style="text;html=1;strokeColor=none;fillColor=none;align=center;verticalAlign=middle;whiteSpace=wrap;rounded=0;comic=1;fontSize=8;rotation=-90;" parent="kESvJMbOoLiE9TMQdQq1-37" vertex="1">
          <mxGeometry x="534" y="410" width="60" height="10" as="geometry" />
        </mxCell>
        <mxCell id="fBQO0n_Sx8WjLDXYuPeo-8" value="&lt;b style=&quot;font-size: 12px;&quot;&gt;VRRP Group 10&lt;/b&gt;&lt;br style=&quot;font-size: 12px;&quot;&gt;VIP: 23.159.32.129&lt;br style=&quot;font-size: 12px;&quot;&gt;CRT01: 23.159.32.130/25&lt;br style=&quot;font-size: 12px;&quot;&gt;CRT02: 23.159.32.131/25" style="text;html=1;align=left;verticalAlign=middle;resizable=0;points=[];autosize=1;fontSize=12;" vertex="1" parent="kESvJMbOoLiE9TMQdQq1-37">
          <mxGeometry x="630" y="130" width="150" height="60" as="geometry" />
        </mxCell>
        <mxCell id="kESvJMbOoLiE9TMQdQq1-38" value="EVC" parent="0" />
        <mxCell id="kESvJMbOoLiE9TMQdQq1-34" value="" style="endArrow=oval;dashed=1;html=1;strokeWidth=1;edgeStyle=orthogonalEdgeStyle;jumpSize=6;rounded=1;fillColor=#e1d5e7;strokeColor=#9673a6;dashPattern=1 1;startArrow=oval;startFill=0;endFill=0;jumpStyle=none;exitX=0.79;exitY=1;exitDx=0;exitDy=0;exitPerimeter=0;" parent="kESvJMbOoLiE9TMQdQq1-38" source="kESvJMbOoLiE9TMQdQq1-1" target="kESvJMbOoLiE9TMQdQq1-17" edge="1">
          <mxGeometry width="50" height="50" relative="1" as="geometry">
            <mxPoint x="260" y="260" as="sourcePoint" />
            <mxPoint x="530" y="610" as="targetPoint" />
            <Array as="points">
              <mxPoint x="239" y="290" />
              <mxPoint x="320" y="290" />
              <mxPoint x="320" y="585" />
            </Array>
          </mxGeometry>
        </mxCell>
        <mxCell id="kESvJMbOoLiE9TMQdQq1-33" value="" style="endArrow=oval;dashed=1;html=1;strokeWidth=1;edgeStyle=orthogonalEdgeStyle;jumpSize=6;rounded=1;entryX=0;entryY=0.5;entryDx=0;entryDy=0;fillColor=#e1d5e7;strokeColor=#9673a6;dashPattern=1 1;startArrow=oval;startFill=0;endFill=0;jumpStyle=none;" parent="kESvJMbOoLiE9TMQdQq1-38" target="kESvJMbOoLiE9TMQdQq1-15" edge="1">
          <mxGeometry width="50" height="50" relative="1" as="geometry">
            <mxPoint x="250" y="230" as="sourcePoint" />
            <mxPoint x="460" y="280" as="targetPoint" />
            <Array as="points">
              <mxPoint x="250" y="230" />
              <mxPoint x="250" y="300" />
              <mxPoint x="330" y="300" />
              <mxPoint x="330" y="515" />
            </Array>
          </mxGeometry>
        </mxCell>
        <mxCell id="fBQO0n_Sx8WjLDXYuPeo-6" value="CJTL" parent="0" />
        <mxCell id="fBQO0n_Sx8WjLDXYuPeo-9" value="" style="group" vertex="1" connectable="0" parent="fBQO0n_Sx8WjLDXYuPeo-6">
          <mxGeometry x="1040" y="160" width="340" height="80" as="geometry" />
        </mxCell>
        <mxCell id="fBQO0n_Sx8WjLDXYuPeo-5" value="CJTL&lt;span style=&quot;font-weight: normal ; font-size: 12px&quot;&gt; (&lt;span style=&quot;font-family: &amp;#34;arial&amp;#34; , &amp;#34;helvetica&amp;#34; , sans-serif ; text-align: center&quot;&gt;23.159.32.144 - 151)&lt;/span&gt;&lt;/span&gt;" style="rounded=0;whiteSpace=wrap;html=1;fontSize=14;fillColor=#e1d5e7;strokeColor=#9673a6;verticalAlign=top;align=left;fontStyle=1;spacingBottom=0;spacingTop=-22;" vertex="1" parent="fBQO0n_Sx8WjLDXYuPeo-9">
          <mxGeometry width="340" height="80" as="geometry" />
        </mxCell>
        <mxCell id="fBQO0n_Sx8WjLDXYuPeo-1" value="DLH-CTN-CJTL-EFW01" style="rounded=1;whiteSpace=wrap;html=1;fillColor=#ffe6cc;strokeColor=#d79b00;" vertex="1" parent="fBQO0n_Sx8WjLDXYuPeo-9">
          <mxGeometry x="5" y="30" width="140" height="20" as="geometry" />
        </mxCell>
        <mxCell id="fBQO0n_Sx8WjLDXYuPeo-3" value="CJTL Colo&lt;br&gt;10.180.0.0/24" style="rounded=1;whiteSpace=wrap;html=1;fillColor=#ffe6cc;strokeColor=#d79b00;" vertex="1" parent="fBQO0n_Sx8WjLDXYuPeo-9">
          <mxGeometry x="240" y="25" width="90" height="30" as="geometry" />
        </mxCell>
        <mxCell id="fBQO0n_Sx8WjLDXYuPeo-4" value="&lt;font face=&quot;Courier New&quot;&gt;(10) 1G&lt;/font&gt;" style="edgeStyle=orthogonalEdgeStyle;rounded=0;orthogonalLoop=1;jettySize=auto;html=1;endArrow=none;endFill=0;strokeWidth=2;fontSize=8;fillColor=#d5e8d4;strokeColor=#82b366;labelBackgroundColor=#E1D5E7;" edge="1" parent="fBQO0n_Sx8WjLDXYuPeo-9" source="fBQO0n_Sx8WjLDXYuPeo-1" target="fBQO0n_Sx8WjLDXYuPeo-3">
          <mxGeometry relative="1" as="geometry" />
        </mxCell>
        <mxCell id="fBQO0n_Sx8WjLDXYuPeo-7" value="23.159.32.xx/29" style="text;html=1;strokeColor=none;fillColor=none;align=left;verticalAlign=middle;whiteSpace=wrap;rounded=0;comic=1;fontSize=8;" vertex="1" parent="fBQO0n_Sx8WjLDXYuPeo-9">
          <mxGeometry x="80" y="55" width="60" height="10" as="geometry" />
        </mxCell>
        <mxCell id="fBQO0n_Sx8WjLDXYuPeo-2" value="&lt;font face=&quot;Courier New&quot;&gt;10G&lt;/font&gt;" style="edgeStyle=orthogonalEdgeStyle;rounded=0;orthogonalLoop=1;jettySize=auto;html=1;fillColor=#dae8fc;strokeColor=#6c8ebf;endArrow=none;endFill=0;strokeWidth=2;fontSize=8;" edge="1" parent="fBQO0n_Sx8WjLDXYuPeo-6" source="kESvJMbOoLiE9TMQdQq1-20" target="fBQO0n_Sx8WjLDXYuPeo-1">
          <mxGeometry relative="1" as="geometry">
            <Array as="points">
              <mxPoint x="775" y="200" />
            </Array>
          </mxGeometry>
        </mxCell>
      </root>
    </mxGraphModel>
  </diagram>
</mxfile>
